<svg width="26" height="26" viewBox="0 0 26 26" fill="none" xmlns="http://www.w3.org/2000/svg">
<path d="M0 13C0 5.8203 5.8203 0 13 0C20.1797 0 26 5.8203 26 13C26 20.1797 20.1797 26 13 26C5.8203 26 0 20.1797 0 13Z" fill="#F3F3F3"/>
<g clip-path="url(#clip0_23_340)">
<path d="M15.9043 14.0968L16.2509 11.8617H14.0837V10.4113C14.0837 9.79985 14.3865 9.20381 15.3571 9.20381H16.3423V7.3009C16.3423 7.3009 15.4482 7.1499 14.5934 7.1499C12.8087 7.1499 11.6421 8.2204 11.6421 10.1583V11.8617H9.6582V14.0968H11.6421V19.4999H14.0837V14.0968H15.9043Z" fill="black"/>
</g>
<defs>
<clipPath id="clip0_23_340">
<rect width="7.8" height="12.35" fill="white" transform="translate(9.1001 7.1499)"/>
</clipPath>
</defs>
</svg>
