<svg width="26" height="26" viewBox="0 0 26 26" fill="none" xmlns="http://www.w3.org/2000/svg">
<path d="M0 13C0 5.8203 5.8203 0 13 0C20.1797 0 26 5.8203 26 13C26 20.1797 20.1797 26 13 26C5.8203 26 0 20.1797 0 13Z" fill="#F3F3F3"/>
<g clip-path="url(#clip0_23_342)">
<path d="M13.0019 10.372C11.5255 10.372 10.3346 11.5443 10.3346 12.9977C10.3346 14.451 11.5255 15.6233 13.0019 15.6233C14.4783 15.6233 15.6692 14.451 15.6692 12.9977C15.6692 11.5443 14.4783 10.372 13.0019 10.372ZM13.0019 14.7047C12.0478 14.7047 11.2678 13.9391 11.2678 12.9977C11.2678 12.0562 12.0455 11.2906 13.0019 11.2906C13.9583 11.2906 14.736 12.0562 14.736 12.9977C14.736 13.9391 13.956 14.7047 13.0019 14.7047ZM16.4005 10.2646C16.4005 10.6051 16.1219 10.877 15.7783 10.877C15.4325 10.877 15.1562 10.6028 15.1562 10.2646C15.1562 9.92641 15.4348 9.65219 15.7783 9.65219C16.1219 9.65219 16.4005 9.92641 16.4005 10.2646ZM18.1671 10.8862C18.1276 10.0658 17.9373 9.33913 17.3267 8.74041C16.7185 8.1417 15.9803 7.95432 15.1469 7.91319C14.288 7.8652 11.7135 7.8652 10.8546 7.91319C10.0235 7.95204 9.28531 8.13942 8.67477 8.73813C8.06424 9.33684 7.8762 10.0635 7.83441 10.8839C7.78566 11.7294 7.78566 14.2636 7.83441 15.1091C7.87388 15.9295 8.06424 16.6562 8.67477 17.2549C9.28531 17.8536 10.0212 18.041 10.8546 18.0821C11.7135 18.1301 14.288 18.1301 15.1469 18.0821C15.9803 18.0433 16.7185 17.8559 17.3267 17.2549C17.935 16.6562 18.1253 15.9295 18.1671 15.1091C18.2158 14.2636 18.2158 11.7317 18.1671 10.8862ZM17.0575 16.0164C16.8764 16.4642 16.5258 16.8093 16.0685 16.9898C15.3837 17.2572 13.7587 17.1955 13.0019 17.1955C12.2451 17.1955 10.6178 17.2549 9.93531 16.9898C9.48031 16.8116 9.12977 16.4665 8.94638 16.0164C8.67477 15.3422 8.73745 13.7426 8.73745 12.9977C8.73745 12.2527 8.67709 10.6508 8.94638 9.97897C9.12745 9.53108 9.47799 9.18602 9.93531 9.00549C10.6201 8.73813 12.2451 8.79983 13.0019 8.79983C13.7587 8.79983 15.386 8.74041 16.0685 9.00549C16.5235 9.18374 16.8741 9.52879 17.0575 9.97897C17.3291 10.6531 17.2664 12.2527 17.2664 12.9977C17.2664 13.7426 17.3291 15.3445 17.0575 16.0164Z" fill="black"/>
</g>
<defs>
<clipPath id="clip0_23_342">
<rect width="10.4" height="11.7" fill="white" transform="translate(7.7998 7.1499)"/>
</clipPath>
</defs>
</svg>
