<svg width="26" height="26" viewBox="0 0 26 26" fill="none" xmlns="http://www.w3.org/2000/svg">
<path d="M0 13C0 5.8203 5.8203 0 13 0C20.1797 0 26 5.8203 26 13C26 20.1797 20.1797 26 13 26C5.8203 26 0 20.1797 0 13Z" fill="#F3F3F3"/>
<g clip-path="url(#clip0_23_341)">
<path d="M9.7071 17.8757H7.33861V10.2814H9.7071V17.8757ZM8.52158 9.24545C7.76421 9.24545 7.1499 8.62084 7.1499 7.86674C7.1499 7.50452 7.29442 7.15713 7.55166 6.901C7.8089 6.64487 8.15779 6.50098 8.52158 6.50098C8.88537 6.50098 9.23426 6.64487 9.4915 6.901C9.74874 7.15713 9.89325 7.50452 9.89325 7.86674C9.89325 8.62084 9.27869 9.24545 8.52158 9.24545ZM18.5716 17.8757H16.2082V14.1788C16.2082 13.2978 16.1904 12.1679 14.9768 12.1679C13.7454 12.1679 13.5567 13.1251 13.5567 14.1154V17.8757H11.1907V10.2814H13.4623V11.3173H13.4955C13.8117 10.7206 14.5841 10.091 15.7364 10.091C18.1335 10.091 18.5741 11.6626 18.5741 13.704V17.8757H18.5716Z" fill="black"/>
</g>
<defs>
<clipPath id="clip0_23_341">
<rect width="11.4242" height="13" fill="white" transform="translate(7.1499 6.5)"/>
</clipPath>
</defs>
</svg>
