<svg width="26" height="26" viewBox="0 0 26 26" fill="none" xmlns="http://www.w3.org/2000/svg">
<path d="M0 13C0 5.8203 5.8203 0 13 0C20.1797 0 26 5.8203 26 13C26 20.1797 20.1797 26 13 26C5.8203 26 0 20.1797 0 13Z" fill="#F3F3F3"/>
<g clip-path="url(#clip0_23_339)">
<path d="M17.6473 10.7369C17.6547 10.8373 17.6547 10.9376 17.6547 11.038C17.6547 14.0992 15.2419 17.6264 10.8321 17.6264C9.47357 17.6264 8.21152 17.2464 7.1499 16.5869C7.34293 16.6084 7.52851 16.6156 7.72896 16.6156C8.84995 16.6156 9.88189 16.25 10.7059 15.6262C9.65175 15.6047 8.7683 14.938 8.46392 14.0204C8.61241 14.0418 8.76088 14.0562 8.91679 14.0562C9.13208 14.0562 9.34739 14.0275 9.54782 13.9773C8.44909 13.7623 7.62501 12.8303 7.62501 11.7047V11.6761C7.94423 11.8481 8.31545 11.9557 8.70889 11.97C8.06301 11.5542 7.63986 10.8444 7.63986 10.0415C7.63986 9.61134 7.75862 9.21704 7.96651 8.87292C9.14691 10.2781 10.9212 11.1957 12.9108 11.2961C12.8737 11.124 12.8514 10.9448 12.8514 10.7656C12.8514 9.48946 13.9205 8.44995 15.2493 8.44995C15.9397 8.44995 16.5633 8.72955 17.0014 9.1812C17.5433 9.08084 18.063 8.88726 18.5233 8.62201C18.3451 9.15971 17.9665 9.61136 17.4691 9.89811C17.9516 9.84795 18.4193 9.71887 18.8499 9.53966C18.5233 9.99847 18.115 10.4071 17.6473 10.7369Z" fill="black"/>
</g>
<defs>
<clipPath id="clip0_23_339">
<rect width="11.7" height="9.75" fill="white" transform="translate(7.1499 8.44995)"/>
</clipPath>
</defs>
</svg>
